<svg width="329" height="80" viewBox="0 0 329 122" fill="none" xmlns="http://www.w3.org/2000/svg">
<g filter="url(#filter0_d)">
<path d="M3.648 91.5998H6.016V111.952H18.56V114H3.648V91.5998ZM38.3318 111.952V114H22.4918V91.5998H37.8518V93.6478H24.8598V101.616H36.4438V103.632H24.8598V111.952H38.3318ZM53.565 114.192C51.3463 114.192 49.3303 113.701 47.517 112.72C45.725 111.717 44.317 110.352 43.293 108.624C42.2903 106.896 41.789 104.954 41.789 102.8C41.789 100.645 42.2903 98.7038 43.293 96.9758C44.317 95.2478 45.725 93.8931 47.517 92.9118C49.3303 91.9091 51.3463 91.4078 53.565 91.4078C55.7837 91.4078 57.7783 91.8984 59.549 92.8798C61.341 93.8611 62.749 95.2264 63.773 96.9758C64.797 98.7038 65.309 100.645 65.309 102.8C65.309 104.954 64.797 106.906 63.773 108.656C62.749 110.384 61.341 111.738 59.549 112.72C57.7783 113.701 55.7837 114.192 53.565 114.192ZM53.565 112.08C55.3357 112.08 56.9357 111.685 58.365 110.896C59.7943 110.085 60.9143 108.976 61.725 107.568C62.5357 106.138 62.941 104.549 62.941 102.8C62.941 101.05 62.5357 99.4718 61.725 98.0638C60.9143 96.6344 59.7943 95.5251 58.365 94.7358C56.9357 93.9251 55.3357 93.5198 53.565 93.5198C51.7943 93.5198 50.1837 93.9251 48.733 94.7358C47.3037 95.5251 46.173 96.6344 45.341 98.0638C44.5303 99.4718 44.125 101.05 44.125 102.8C44.125 104.549 44.5303 106.138 45.341 107.568C46.173 108.976 47.3037 110.085 48.733 110.896C50.1837 111.685 51.7943 112.08 53.565 112.08ZM89.3368 91.5998V114H87.3848L72.9848 95.8238V114H70.6168V91.5998H72.5688L87.0008 109.776V91.5998H89.3368ZM112.488 111.952V114H96.648V91.5998H112.008V93.6478H99.016V101.616H110.6V103.632H99.016V111.952H112.488ZM118.054 91.5998H120.422V111.952H132.966V114H118.054V91.5998ZM151.009 108.016H138.529L135.841 114H133.377L143.617 91.5998H145.953L156.193 114H153.697L151.009 108.016ZM150.145 106.096L144.769 94.0638L139.393 106.096H150.145ZM186.897 91.5998L176.977 114H174.641L164.721 91.5998H167.281L175.857 111.056L184.497 91.5998H186.897ZM205.988 111.952V114H190.148V91.5998H205.508V93.6478H192.516V101.616H204.1V103.632H192.516V111.952H205.988ZM230.274 91.5998V114H228.322L213.922 95.8238V114H211.554V91.5998H213.506L227.938 109.776V91.5998H230.274ZM241.938 93.6478H234.066V91.5998H252.178V93.6478H244.306V114H241.938V93.6478ZM264.547 114.192C261.646 114.192 259.384 113.36 257.763 111.696C256.142 110.032 255.331 107.61 255.331 104.432V91.5998H257.699V104.336C257.699 106.938 258.286 108.88 259.459 110.16C260.632 111.44 262.328 112.08 264.547 112.08C266.787 112.08 268.494 111.44 269.667 110.16C270.84 108.88 271.427 106.938 271.427 104.336V91.5998H273.731V104.432C273.731 107.61 272.92 110.032 271.299 111.696C269.699 113.36 267.448 114.192 264.547 114.192ZM296.163 114L291.043 106.8C290.467 106.864 289.869 106.896 289.251 106.896H283.235V114H280.867V91.5998H289.251C292.109 91.5998 294.349 92.2824 295.971 93.6478C297.592 95.0131 298.403 96.8904 298.403 99.2798C298.403 101.029 297.955 102.512 297.059 103.728C296.184 104.922 294.925 105.786 293.283 106.32L298.755 114H296.163ZM289.187 104.88C291.405 104.88 293.101 104.389 294.275 103.408C295.448 102.426 296.035 101.05 296.035 99.2798C296.035 97.4664 295.448 96.0798 294.275 95.1198C293.101 94.1384 291.405 93.6478 289.187 93.6478H283.235V104.88H289.187ZM313.784 114.192C311.565 114.192 309.549 113.701 307.736 112.72C305.944 111.717 304.536 110.352 303.512 108.624C302.509 106.896 302.008 104.954 302.008 102.8C302.008 100.645 302.509 98.7038 303.512 96.9758C304.536 95.2478 305.944 93.8931 307.736 92.9118C309.549 91.9091 311.565 91.4078 313.784 91.4078C316.002 91.4078 317.997 91.8984 319.768 92.8798C321.56 93.8611 322.968 95.2264 323.992 96.9758C325.016 98.7038 325.528 100.645 325.528 102.8C325.528 104.954 325.016 106.906 323.992 108.656C322.968 110.384 321.56 111.738 319.768 112.72C317.997 113.701 316.002 114.192 313.784 114.192ZM313.784 112.08C315.554 112.08 317.154 111.685 318.584 110.896C320.013 110.085 321.133 108.976 321.944 107.568C322.754 106.138 323.16 104.549 323.16 102.8C323.16 101.05 322.754 99.4718 321.944 98.0638C321.133 96.6344 320.013 95.5251 318.584 94.7358C317.154 93.9251 315.554 93.5198 313.784 93.5198C312.013 93.5198 310.402 93.9251 308.952 94.7358C307.522 95.5251 306.392 96.6344 305.56 98.0638C304.749 99.4718 304.344 101.05 304.344 102.8C304.344 104.549 304.749 106.138 305.56 107.568C306.392 108.976 307.522 110.085 308.952 110.896C310.402 111.685 312.013 112.08 313.784 112.08Z" fill="white"/>
</g>
<path d="M128.493 79.9958C129.294 71.0835 133.377 62.7866 139.951 56.7154C146.525 50.6443 155.119 47.232 164.067 47.141C182.798 46.8305 197.879 61.9865 199.607 79.9958H209.3C208.437 68.5379 203.315 57.8184 194.944 49.9482C186.572 42.078 175.556 37.6275 164.067 37.4733C140.041 37.0873 120.672 56.817 118.834 79.9958H128.493Z" fill="#FFB3DD"/>
<path d="M118.801 79.9956C119.642 68.5236 124.761 57.7861 133.145 49.9105C141.529 42.0349 152.565 37.5959 164.067 37.4731C188.085 37.1542 207.53 56.7748 209.3 79.9956H218.993C218.1 65.9765 211.945 52.812 201.76 43.1366C191.576 33.4611 178.114 27.9885 164.067 27.8139C134.771 27.4279 111.004 51.555 109.141 79.9956H118.801Z" fill="#C7F3A4"/>
<path d="M109.519 79.996C110.336 66.0292 116.42 52.8922 126.544 43.2357C136.668 33.5792 150.077 28.122 164.067 27.9653C193.213 27.638 216.937 51.5554 218.615 79.996H228.275C227.402 63.487 220.281 47.9285 208.357 36.4779C196.432 25.0273 180.598 18.5425 164.067 18.3397C129.66 17.962 101.622 46.4194 99.8428 79.996H109.519Z" fill="#FFFA9D"/>
<path d="M100.909 79.9959C101.541 63.6099 108.452 48.0949 120.209 36.6641C131.966 25.2332 147.67 18.7622 164.067 18.5913C198.172 18.2556 225.916 46.5704 227.2 79.9959H236.86C236.182 61.0665 228.242 43.1246 214.688 29.8928C201.135 16.661 183.007 9.15501 164.067 8.93208C124.7 8.54605 92.6088 41.3841 91.2661 79.9959H100.909Z" fill="#AFE2FF"/>
<path d="M92.676 79.9958C93.1506 61.3194 100.849 43.5546 114.152 30.4376C127.456 17.3205 145.327 9.87331 164.008 9.6621C202.83 9.32642 234.46 41.7868 235.341 79.9958H245C244.052 36.0467 208.075 0.380509 163.983 0.0028675C119.891 -0.374774 83.9567 36.6006 83 79.9958H92.676Z" fill="#D7A2F9"/>
<defs>
<filter id="filter0_d" x="2.64795" y="90.4077" width="325.88" height="26.784" filterUnits="userSpaceOnUse" color-interpolation-filters="sRGB">
<feFlood flood-opacity="0" result="BackgroundImageFix"/>
<feColorMatrix in="SourceAlpha" type="matrix" values="0 0 0 0 0 0 0 0 0 0 0 0 0 0 0 0 0 0 127 0"/>
<feOffset dx="1" dy="1"/>
<feGaussianBlur stdDeviation="1"/>
<feColorMatrix type="matrix" values="0 0 0 0 0.273868 0 0 0 0 0.207153 0 0 0 0 0.316667 0 0 0 0.3 0"/>
<feBlend mode="normal" in2="BackgroundImageFix" result="effect1_dropShadow"/>
<feBlend mode="normal" in="SourceGraphic" in2="effect1_dropShadow" result="shape"/>
</filter>
</defs>
</svg>

