<svg width="474" height="512" viewBox="0 0 474 512" fill="none" xmlns="http://www.w3.org/2000/svg">
<path d="M407.935 367.781C407.935 381.724 396.714 393.027 382.871 393.027H57.0342C43.1902 393.027 31.9702 381.724 31.9702 367.781V123.725C31.9702 109.781 43.1902 98.4761 57.0342 98.4761H382.871C396.714 98.4761 407.935 109.781 407.935 123.725V367.781Z" fill="#352C38"/>
<path d="M371.505 307.708V30.323C371.505 13.574 357.987 0 341.311 0H100.511C83.8359 0 70.3169 13.574 70.3169 30.323V307.709H371.506V307.708H371.505Z" fill="white"/>
<path d="M371.505 307.708V30.323C371.505 13.574 357.987 0 341.311 0H100.511C83.8359 0 70.3169 13.574 70.3169 30.323V307.709H371.506V307.708H371.505Z" fill="white"/>
<path opacity="0.1" d="M97.7789 48.569C97.7789 31.825 111.298 18.248 127.972 18.248H368.772C368.852 18.248 368.932 18.252 369.012 18.252C364.367 7.512 353.715 0 341.311 0H100.511C83.8359 0 70.3169 13.574 70.3169 30.323V307.709H97.7789V48.569Z" fill="black"/>
<path d="M290.989 176.084H150.832C146.565 176.084 143.107 179.56 143.107 183.842C143.107 188.128 146.565 191.599 150.832 191.599H290.989C295.257 191.599 298.714 188.128 298.714 183.842C298.714 179.56 295.257 176.084 290.989 176.084Z" fill="#B3B3B3"/>
<path d="M290.989 141.501H150.832C146.565 141.501 143.107 144.975 143.107 149.258C143.107 153.543 146.565 157.014 150.832 157.014H290.989C295.257 157.014 298.714 153.543 298.714 149.258C298.714 144.975 295.257 141.501 290.989 141.501Z" fill="#352C38"/>
<path d="M150.832 122.431H290.989C295.257 122.431 298.714 118.96 298.714 114.674C298.714 110.389 295.257 106.915 290.989 106.915H150.832C146.565 106.915 143.107 110.389 143.107 114.674C143.108 118.96 146.565 122.431 150.832 122.431Z" fill="#352C38"/>
<path d="M150.832 87.4051H220.91C225.177 87.4051 228.636 83.9331 228.636 79.6471C228.636 75.3631 225.177 71.8921 220.91 71.8921H150.832C146.565 71.8921 143.107 75.3631 143.107 79.6471C143.108 83.9321 146.565 87.4051 150.832 87.4051Z" fill="#352C38"/>
<path d="M473.954 251.909C473.954 265.974 462.552 277.376 448.487 277.376C434.42 277.376 423.018 265.974 423.018 251.909V222.422C423.018 208.357 434.42 196.956 448.487 196.956C462.552 196.956 473.954 208.357 473.954 222.422V251.909Z" fill="#FFB3DD"/>
<path d="M87.9189 175.095V181.731C87.9189 223.87 121.91 258.03 163.84 258.03H276.065C317.995 258.03 351.984 223.869 351.984 181.731V175.095C351.984 172.482 351.851 169.9 351.596 167.355H88.3069C88.0509 169.9 87.9189 172.481 87.9189 175.095Z" fill="#FFB3DD"/>
<path d="M279.7 167.355V248.815C283.806 248.276 287.802 247.387 291.651 246.152V167.355H279.7Z" fill="#352C38"/>
<path d="M148.258 167.355V246.152C152.102 247.387 156.098 248.276 160.205 248.815V167.355H148.258Z" fill="#352C38"/>
<path d="M126.351 167.355V234.351C130.042 237.312 134.041 239.897 138.298 242.054V167.355H126.351Z" fill="#352C38"/>
<path d="M100.809 167.355C100.577 169.659 100.458 171.994 100.458 174.36V180.366C100.458 197.184 106.448 212.593 116.393 224.573V167.355H100.809Z" fill="#352C38"/>
<path d="M339.446 174.36C339.446 171.994 339.327 169.659 339.095 167.355H323.515V224.573C333.459 212.593 339.447 197.184 339.447 180.366V174.36H339.446Z" fill="#352C38"/>
<path d="M301.607 167.355V242.054C305.862 239.897 309.863 237.312 313.556 234.351V167.355H301.607Z" fill="#352C38"/>
<path d="M204.019 167.351H192.067V249.417H204.019V167.351Z" fill="#352C38"/>
<path d="M247.839 167.351H235.89V249.417H247.839V167.351Z" fill="#352C38"/>
<path d="M182.115 167.351H170.166V249.417H182.115V167.351Z" fill="#352C38"/>
<path d="M269.74 167.351H257.791V249.417H269.74V167.351Z" fill="#352C38"/>
<path d="M225.927 167.351H213.979V249.417H225.927V167.351Z" fill="#352C38"/>
<path d="M410.579 167.355H331.06C331.078 174.51 331.086 179.456 331.086 179.456C331.086 214.924 302.476 243.679 267.183 243.679H172.721C137.427 243.679 108.816 214.925 108.816 179.456C108.816 179.456 108.831 174.21 108.858 167.355H29.325C13.127 167.355 0 180.579 0 196.896V482.457C0 498.773 13.128 511.999 29.325 511.999H410.578C426.775 511.999 439.905 498.773 439.905 482.458V196.896C439.907 180.579 426.776 167.355 410.579 167.355Z" fill="#D7A2F9"/>
<path d="M403.444 454.311C403.444 464.72 395.048 473.158 384.691 473.158H55.2129C44.8569 473.158 36.4639 464.72 36.4639 454.311V305.346C36.4639 294.939 44.8569 286.501 55.2129 286.501H384.69C395.047 286.501 403.443 294.939 403.443 305.346V454.311H403.444Z" fill="#AFE2FF"/>
<path opacity="0.1" d="M77.7699 450.784C67.4129 450.784 59.0189 442.346 59.0189 431.938V286.501H55.2119C44.8559 286.501 36.4629 294.939 36.4629 305.346V454.312C36.4629 464.721 44.8559 473.159 55.2119 473.159H384.689C395.046 473.159 403.442 464.721 403.442 454.312V450.784H77.7699Z" fill="black"/>
<path d="M85.6649 330.499V311.883C85.6649 309.311 83.5909 307.23 81.0339 307.23H62.5119C59.9529 307.23 57.8809 309.311 57.8809 311.883V330.499C57.8809 333.069 59.9519 335.153 62.5119 335.153H81.0349C83.5909 335.153 85.6649 333.07 85.6649 330.499Z" fill="white"/>
<path d="M99.5548 335.153H118.08C120.637 335.153 122.709 333.07 122.709 330.499V311.883C122.709 309.311 120.638 307.23 118.08 307.23H99.5548C96.9988 307.23 94.9248 309.311 94.9248 311.883V330.499C94.9258 333.07 96.9988 335.153 99.5548 335.153Z" fill="white"/>
<path d="M136.603 335.153H155.124C157.683 335.153 159.757 333.07 159.757 330.499V311.883C159.757 309.311 157.684 307.23 155.124 307.23H136.603C134.045 307.23 131.97 309.311 131.97 311.883V330.499C131.97 333.07 134.044 335.153 136.603 335.153Z" fill="white"/>
<path d="M173.646 335.153H192.171C194.728 335.153 196.8 333.07 196.8 330.499V311.883C196.8 309.311 194.729 307.23 192.171 307.23H173.646C171.089 307.23 169.017 309.311 169.017 311.883V330.499C169.017 333.07 171.088 335.153 173.646 335.153Z" fill="white"/>
<path d="M210.69 335.153H229.213C231.772 335.153 233.844 333.07 233.844 330.499V311.883C233.844 309.311 231.773 307.23 229.213 307.23H210.69C208.134 307.23 206.06 309.311 206.06 311.883V330.499C206.061 333.07 208.134 335.153 210.69 335.153Z" fill="white"/>
<path d="M247.736 335.153H266.259C268.816 335.153 270.89 333.07 270.89 330.499V311.883C270.89 309.311 268.817 307.23 266.259 307.23H247.736C245.179 307.23 243.105 309.311 243.105 311.883V330.499C243.105 333.07 245.179 335.153 247.736 335.153Z" fill="white"/>
<path d="M284.781 335.153H303.304C305.861 335.153 307.936 333.07 307.936 330.499V311.883C307.936 309.311 305.862 307.23 303.304 307.23H284.781C282.224 307.23 280.15 309.311 280.15 311.883V330.499C280.15 333.07 282.224 335.153 284.781 335.153Z" fill="white"/>
<path d="M321.826 335.153H340.347C342.906 335.153 344.98 333.07 344.98 330.499V311.883C344.98 309.311 342.907 307.23 340.347 307.23H321.826C319.268 307.23 317.195 309.311 317.195 311.883V330.499C317.196 333.07 319.268 335.153 321.826 335.153Z" fill="white"/>
<path d="M377.394 307.23H358.872C356.315 307.23 354.241 309.311 354.241 311.883V330.499C354.241 333.069 356.314 335.153 358.872 335.153H377.394C379.951 335.153 382.023 333.07 382.023 330.499V311.883C382.022 309.313 379.95 307.23 377.394 307.23Z" fill="white"/>
<path d="M104.188 369.591V350.976C104.188 348.406 102.115 346.323 99.5548 346.323H81.0348C78.4758 346.323 76.4038 348.406 76.4038 350.976V369.591C76.4038 372.163 78.4748 374.245 81.0348 374.245H99.5558C102.115 374.245 104.188 372.162 104.188 369.591Z" fill="white"/>
<path d="M118.08 346.322C115.521 346.322 113.449 348.404 113.449 350.975V369.59C113.449 372.162 115.52 374.244 118.08 374.244H136.603C139.161 374.244 141.233 372.162 141.233 369.59V350.975C141.233 348.405 139.162 346.322 136.603 346.322H118.08Z" fill="white"/>
<path d="M155.123 346.322C152.567 346.322 150.493 348.404 150.493 350.975V369.59C150.493 372.162 152.566 374.244 155.123 374.244H173.646C176.205 374.244 178.277 372.162 178.277 369.59V350.975C178.277 348.405 176.206 346.322 173.646 346.322H155.123Z" fill="white"/>
<path d="M192.171 346.322C189.612 346.322 187.538 348.404 187.538 350.975V369.59C187.538 372.162 189.611 374.244 192.171 374.244H210.691C213.25 374.244 215.322 372.162 215.322 369.59V350.975C215.322 348.405 213.251 346.322 210.691 346.322H192.171Z" fill="white"/>
<path d="M229.213 346.322C226.656 346.322 224.582 348.404 224.582 350.975V369.59C224.582 372.162 226.655 374.244 229.213 374.244H247.736C250.293 374.244 252.367 372.162 252.367 369.59V350.975C252.367 348.405 250.294 346.322 247.736 346.322H229.213Z" fill="white"/>
<path d="M266.258 346.322C263.701 346.322 261.627 348.404 261.627 350.975V369.59C261.627 372.162 263.7 374.244 266.258 374.244H284.781C287.338 374.244 289.412 372.162 289.412 369.59V350.975C289.412 348.405 287.339 346.322 284.781 346.322H266.258Z" fill="white"/>
<path d="M303.304 346.322C300.745 346.322 298.673 348.404 298.673 350.975V369.59C298.673 372.162 300.744 374.244 303.304 374.244H321.827C324.384 374.244 326.458 372.162 326.458 369.59V350.975C326.458 348.405 324.385 346.322 321.827 346.322H303.304Z" fill="white"/>
<path d="M358.872 346.322H340.347C337.79 346.322 335.718 348.404 335.718 350.975V369.59C335.718 372.162 337.79 374.244 340.347 374.244H358.872C361.428 374.244 363.501 372.162 363.501 369.59V350.975C363.501 348.406 361.427 346.322 358.872 346.322Z" fill="white"/>
<path d="M118.08 385.414H99.5548C96.9988 385.414 94.9248 387.498 94.9248 390.067V408.683C94.9248 411.252 96.9978 413.337 99.5548 413.337H118.08C120.637 413.337 122.709 411.252 122.709 408.683V390.067C122.709 387.498 120.637 385.414 118.08 385.414Z" fill="white"/>
<path d="M155.123 385.414H136.602C134.044 385.414 131.969 387.498 131.969 390.067V408.683C131.969 411.252 134.043 413.337 136.602 413.337H155.123C157.682 413.337 159.756 411.252 159.756 408.683V390.067C159.756 387.498 157.682 385.414 155.123 385.414Z" fill="white"/>
<path d="M192.171 385.414H173.646C171.089 385.414 169.017 387.498 169.017 390.067V408.683C169.017 411.252 171.088 413.337 173.646 413.337H192.171C194.728 413.337 196.8 411.252 196.8 408.683V390.067C196.8 387.498 194.728 385.414 192.171 385.414Z" fill="white"/>
<path d="M229.213 385.414H210.69C208.134 385.414 206.06 387.498 206.06 390.067V408.683C206.06 411.252 208.133 413.337 210.69 413.337H229.213C231.772 413.337 233.844 411.252 233.844 408.683V390.067C233.844 387.498 231.773 385.414 229.213 385.414Z" fill="white"/>
<path d="M266.258 385.414H247.735C245.178 385.414 243.104 387.498 243.104 390.067V408.683C243.104 411.252 245.177 413.337 247.735 413.337H266.258C268.815 413.337 270.889 411.252 270.889 408.683V390.067C270.889 387.498 268.816 385.414 266.258 385.414Z" fill="white"/>
<path d="M303.304 385.414H284.781C282.224 385.414 280.15 387.498 280.15 390.067V408.683C280.15 411.252 282.223 413.337 284.781 413.337H303.304C305.861 413.337 307.936 411.252 307.936 408.683V390.067C307.935 387.498 305.861 385.414 303.304 385.414Z" fill="white"/>
<path d="M340.347 385.414H321.826C319.268 385.414 317.195 387.498 317.195 390.067V408.683C317.195 411.252 319.267 413.337 321.826 413.337H340.347C342.906 413.337 344.98 411.252 344.98 408.683V390.067C344.979 387.498 342.906 385.414 340.347 385.414Z" fill="white"/>
<path d="M312.566 447.776C312.566 450.345 310.492 452.43 307.935 452.43H131.97C129.413 452.43 127.341 450.345 127.341 447.776V429.161C127.341 426.587 129.412 424.507 131.97 424.507H307.935C310.491 424.507 312.566 426.587 312.566 429.161V447.776Z" fill="white"/>
<path opacity="0.1" d="M25.908 482.459V196.896C25.908 180.579 39.036 167.355 55.234 167.355H29.325C13.127 167.355 0 180.579 0 196.896V482.457C0 498.773 13.128 511.999 29.325 511.999H55.233C39.036 512 25.908 498.774 25.908 482.459Z" fill="black"/>
<path opacity="0.2" d="M410.579 167.355H388.031C404.228 167.355 417.358 180.579 417.358 196.896V482.457C417.358 498.772 404.228 511.998 388.031 511.998H410.579C426.776 511.998 439.906 498.772 439.906 482.457V196.896C439.907 180.579 426.776 167.355 410.579 167.355Z" fill="white"/>
</svg>
